<?xml version="1.0" encoding="utf-8"?>
<!-- Generator: Adobe Illustrator 18.1.0, SVG Export Plug-In . SVG Version: 6.00 Build 0)  -->
<!DOCTYPE svg PUBLIC "-//W3C//DTD SVG 1.1//EN" "http://www.w3.org/Graphics/SVG/1.1/DTD/svg11.dtd">
<svg version="1.1" id="Layer_1" xmlns="http://www.w3.org/2000/svg" xmlns:xlink="http://www.w3.org/1999/xlink" x="0px" y="0px"
	 viewBox="451 68.7 309.9 597.5" enable-background="new 451 68.7 309.9 597.5" xml:space="preserve">
<g id="mobile">
	<g id="icbDGj.tif">
		
			<image overflow="visible" width="759" height="1485" id="Layer_0_1_" xlink:href="939E00354D4A6D2F.png"  transform="matrix(0.3916 0 0 0.3916 458.2159 76.9088)">
		</image>
	</g>
	<g>
		<circle fill="#8DD4DE" stroke="#8DD4DE" stroke-miterlimit="10" cx="604.4" cy="232.7" r="36.5"/>
		<polygon fill="#8DD4DE" stroke="#8DD4DE" stroke-miterlimit="10" points="606.5,289.4 634.3,253.7 574.7,253.7 		"/>
		<circle fill="#FFFFFF" stroke="#FFFFFF" stroke-miterlimit="10" cx="603.4" cy="232.5" r="26"/>
		<path fill="#676867" stroke="#666766" stroke-miterlimit="10" d="M582.2,247.9c0,0,5,9.8,18.7,10.8
			C600.9,258.5,602.8,235.8,582.2,247.9z"/>
		<circle fill="#676867" stroke="#666766" stroke-miterlimit="10" cx="599.2" cy="237.9" r="5.2"/>
		<path fill="#676867" stroke="#666766" stroke-miterlimit="10" d="M624.8,217.8c0,0-4.2-9.5-16.8-10.8
			C608,207,605.1,228,624.8,217.8z"/>
		<circle fill="#676867" stroke="#666766" stroke-miterlimit="10" cx="608.6" cy="225" r="4.8"/>
		<path fill="#8EC641" stroke="#8EC641" stroke-miterlimit="10" d="M577.4,227.1c0,0,0.4-10,10.4-15
			C587.8,212,597.4,231.1,577.4,227.1z"/>
		<ellipse fill="#8EC641" stroke="#8EC641" stroke-miterlimit="10" cx="593.9" cy="227.3" rx="4.2" ry="4.8"/>
		<path fill="#8EC641" stroke="#8EC641" stroke-miterlimit="10" d="M627.9,239.4c0,0-0.4,9.5-9.6,14.1
			C618.2,253.5,609.4,235.8,627.9,239.4z"/>
		<ellipse fill="#8EC641" stroke="#8EC641" stroke-miterlimit="10" cx="612.5" cy="239.2" rx="3.9" ry="4.4"/>
		<path fill="#FFFFFF" stroke="#FFFFFF" stroke-miterlimit="10" d="M604.9,269.3L604.9,269.3c-1.7,0-3.1-1.4-3.1-3.1v-8.1
			c0-1.7,1.4-3.1,3.1-3.1l0,0c1.7,0,3.1,1.4,3.1,3.1v7.9C608.2,267.8,606.7,269.3,604.9,269.3z"/>
		<path fill="#FFFFFF" stroke="#FFFFFF" stroke-miterlimit="10" d="M583.9,234.8L583.9,234.8c0,1.7-1.4,3.1-3.1,3.1h-7.9
			c-1.7,0-3.1-1.4-3.1-3.1l0,0c0-1.7,1.4-3.1,3.1-3.1h7.9C582.4,231.7,583.9,233.1,583.9,234.8z"/>
		<path fill="#FFFFFF" stroke="#FFFFFF" stroke-miterlimit="10" d="M639.8,234.8L639.8,234.8c0,1.7-1.4,3.1-3.1,3.1h-7.9
			c-1.7,0-3.1-1.4-3.1-3.1l0,0c0-1.7,1.4-3.1,3.1-3.1h7.9C638.3,231.7,639.8,233.1,639.8,234.8z"/>
		<path fill="#FFFFFF" stroke="#FFFFFF" stroke-miterlimit="10" d="M604,199.1L604,199.1c1.7,0,3.1,1.4,3.1,3.1v7.9
			c0,1.7-1.4,3.1-3.1,3.1l0,0c-1.7,0-3.1-1.4-3.1-3.1v-7.9C600.9,200.7,602.2,199.1,604,199.1z"/>
		<rect x="567.7" y="291.9" fill="none" width="73.3" height="17.2"/>
	</g>
	<g>
		<rect x="487.1" y="362.6" fill="#FFFFFF" width="234.5" height="183.3"/>
		<polygon fill="#FFFFFF" stroke="#8DD4DE" stroke-miterlimit="10" points="487.3,390.2 721.7,390.2 721.7,390.2 		"/>
		<polygon fill="#FFFFFF" stroke="#8DD4DE" stroke-miterlimit="10" points="487.3,417.1 721.7,417.1 721.7,417.1 		"/>
		<polygon fill="#FFFFFF" stroke="#8DD4DE" stroke-miterlimit="10" points="487.3,444.4 721.7,444.4 721.7,444.4 		"/>
		<polygon fill="#FFFFFF" stroke="#8DD4DE" stroke-miterlimit="10" points="487.5,471.3 721.8,471.3 721.8,471.3 		"/>
		<rect x="487.3" y="498.7" fill="#8EC641" width="234.3" height="23.6"/>
		<rect x="487.3" y="522" fill="#58595B" width="234" height="24"/>
		<text transform="matrix(1 0 0 1 587.251 516.9053)" fill="#FFFFFF" font-family="'Helvetica'" font-size="13.8874">Save </text>
		<text transform="matrix(1 0 0 1 585.5153 538.1094)" fill="#FFFFFF" font-family="'Helvetica'" font-size="13.8874">Delete </text>
		<rect x="506.1" y="371.1" fill="none" width="98.4" height="17.5"/>
		<text transform="matrix(1 0 0 1 506.1062 381.0759)" font-family="'Helvetica'" font-size="13.8874">Melissa Jones</text>
		<rect x="506.1" y="396.8" fill="none" width="98.4" height="17.5"/>
		<text transform="matrix(1 0 0 1 506.1062 406.8163)" font-family="'Helvetica'" font-size="13.8874">David Smith</text>
		<rect x="506.1" y="425.8" fill="none" width="110.8" height="17.5"/>
		<text transform="matrix(1 0 0 1 506.1062 435.8226)" font-family="'Helvetica'" font-size="13.8874">+1 613-413-8643</text>
		<rect x="506.1" y="451" fill="none" width="127.8" height="17.5"/>
		<text transform="matrix(1 0 0 1 506.1062 461.0287)" font-family="'Helvetica'" font-size="13.8874">+1 520-662-13445</text>
		<g id="Dn1asU.tif_2_">
			
				<image overflow="visible" enable-background="new    " width="706" height="706" id="Layer_0_8_" xlink:href="939E00354D4A6D2A.png"  transform="matrix(2.989782e-02 0 0 2.989782e-02 689.186 420.7776)">
			</image>
		</g>
		<g id="Pcq8Aj.tif_2_">
			
				<image overflow="visible" enable-background="new    " width="1069" height="740" id="Layer_0_7_" xlink:href="939E00354D4A6D29.png"  transform="matrix(1.974543e-02 0 0 1.857482e-02 689.186 398.148)">
			</image>
		</g>
	</g>
	<g id="c9YCBw.tif_1_">
		
			<image overflow="visible" enable-background="new    " width="1320" height="711" id="Layer_0_5_" xlink:href="939E00354D4A6D35.png"  transform="matrix(1.599080e-02 0 0 1.562504e-02 689.9938 371.6614)">
		</image>
	</g>
	<rect x="682.3" y="193.4" fill="#FFFFFF" width="41.7" height="35.1"/>
	<rect x="689.6" y="201.5" fill="#666766" width="27.8" height="4.1"/>
	<rect x="689.6" y="209.5" fill="#666766" width="27.8" height="4.1"/>
	<rect x="689.6" y="218.3" fill="#666766" width="27.8" height="4.1"/>
	<g>
		<ellipse fill="#8DC63F" stroke="#58595B" stroke-miterlimit="10" cx="652.1" cy="378.7" rx="8" ry="8.3"/>
		<text transform="matrix(1 0 0 1 647.0082 380.5748)" fill="#FFFFFF" font-family="'Helvetica'" font-size="6.9437">rec</text>
		<path fill="#666766" d="M674.3,412.1L674.3,412.1c-1.4,0-2.4-1-2.4-2.4v-8.5c0-1.4,1-2.4,2.4-2.4l0,0c1.4,0,2.4,1,2.4,2.4v8.5
			C676.7,410.9,675.7,412.1,674.3,412.1z"/>
		<path fill="#666766" d="M667.5,405.5L667.5,405.5c0-1.4,1-2.4,2.4-2.4h8.5c1.4,0,2.4,1,2.4,2.4l0,0c0,1.4-1,2.4-2.4,2.4H670
			C668.7,407.8,667.5,406.8,667.5,405.5z"/>
		<path fill="#666766" d="M675,437.9L675,437.9c-1.4,0-2.4-1-2.4-2.4V427c0-1.4,1-2.4,2.4-2.4l0,0c1.4,0,2.4,1,2.4,2.4v8.5
			C677.3,436.9,676.2,437.9,675,437.9z"/>
		<path fill="#666766" d="M668.2,431.3L668.2,431.3c0-1.4,1-2.4,2.4-2.4h8.5c1.4,0,2.4,1,2.4,2.4l0,0c0,1.4-1,2.4-2.4,2.4h-8.5
			C669.3,433.8,668.2,432.7,668.2,431.3z"/>
		<path fill="#666766" d="M675,461.6L675,461.6c-1.4,0-2.4-1-2.4-2.4v-8.5c0-1.4,1-2.4,2.4-2.4l0,0c1.4,0,2.4,1,2.4,2.4v8.5
			C677.4,460.6,676.4,461.6,675,461.6z"/>
		<path fill="#666766" d="M668.4,454.7L668.4,454.7c0-1.4,1-2.4,2.4-2.4h8.5c1.4,0,2.4,1,2.4,2.4l0,0c0,1.4-1,2.4-2.4,2.4h-8.5
			C669.4,457.1,668.4,456.1,668.4,454.7z"/>
		<ellipse fill="#8DC63F" stroke="#58595B" stroke-miterlimit="10" cx="652.5" cy="404.8" rx="8" ry="8.3"/>
		<text transform="matrix(1 0 0 1 647.4341 406.6862)" fill="#FFFFFF" font-family="'Helvetica'" font-size="6.9437">rec</text>
		<ellipse fill="#8DC63F" stroke="#58595B" stroke-miterlimit="10" cx="652.1" cy="431.3" rx="8" ry="8.3"/>
		<text transform="matrix(1 0 0 1 647.0082 433.2436)" fill="#FFFFFF" font-family="'Helvetica'" font-size="6.9437">rec</text>
		<ellipse fill="#8DC63F" stroke="#58595B" stroke-miterlimit="10" cx="652.7" cy="455.6" rx="8" ry="8.3"/>
		<text transform="matrix(1 0 0 1 647.5561 457.5039)" fill="#FFFFFF" font-family="'Helvetica'" font-size="6.9437">rec</text>
	</g>
</g>
<path fill="#666766" d="M672.5,383.9L672.5,383.9c-1.4,0-2.4-1-2.4-2.4V373c0-1.4,1-2.4,2.4-2.4l0,0c1.4,0,2.4,1,2.4,2.4v8.5
	C674.9,382.7,673.9,383.9,672.5,383.9z"/>
<path fill="#666766" d="M665.7,377.3L665.7,377.3c0-1.4,1-2.4,2.4-2.4h8.5c1.4,0,2.4,1,2.4,2.4l0,0c0,1.4-1,2.4-2.4,2.4h-8.5
	C667,379.6,665.7,378.5,665.7,377.3z"/>
<rect x="486.2" y="340.8" fill="none" width="236.5" height="27"/>
<text transform="matrix(1 0 0 1 534.5716 347.1442)" fill="#FFFFFF" font-family="'MyriadPro-Regular'" font-size="9">Select Number for Mobile View Mode</text>
<g id="WmE2Ml.tif_1_">
	
		<image overflow="visible" enable-background="new    " width="2138" height="1316" id="Layer_0_6_" xlink:href="939E00354D4A6D36.png"  transform="matrix(9.872711e-03 0 0 9.166520e-03 687.186 449.5604)">
	</image>
</g>
<rect x="487.6" y="321.3" fill="none" width="236.5" height="27"/>
<text transform="matrix(1 0 0 1 496.4001 334.0623)" fill="#FFFFFF" font-family="'MyriadPro-Regular'" font-size="18">Call Log and Message History</text>
</svg>
