<?xml version="1.0" encoding="utf-8"?>
<!-- Generator: Adobe Illustrator 18.1.0, SVG Export Plug-In . SVG Version: 6.00 Build 0)  -->
<!DOCTYPE svg PUBLIC "-//W3C//DTD SVG 1.1//EN" "http://www.w3.org/Graphics/SVG/1.1/DTD/svg11.dtd">
<svg version="1.1" id="Layer_1" xmlns="http://www.w3.org/2000/svg" xmlns:xlink="http://www.w3.org/1999/xlink" x="0px" y="0px"
	 viewBox="0 0 345.3 544.8" enable-background="new 0 0 345.3 544.8" xml:space="preserve">
<circle fill="#8CD4DF" stroke="#8CD4DF" stroke-miterlimit="10" cx="172.7" cy="172.7" r="172.2"/>
<polygon fill="#8CD4DF" stroke="#8CD4DF" stroke-miterlimit="10" points="182,439.7 313.5,271.7 31.9,271.7 "/>
<circle fill="#FFFFFF" stroke="#FFFFFF" stroke-miterlimit="10" cx="167.5" cy="171.6" r="122.4"/>
<path fill="#666766" stroke="#27AAE1" stroke-miterlimit="10" d="M68,244c0,0,23.8,46.7,88,50.6C156,294.6,165.4,186.5,68,244z"/>
<circle fill="#666766" stroke="#27AAE1" stroke-miterlimit="10" cx="147.4" cy="196.9" r="24.2"/>
<path fill="#666766" stroke="#27AAE1" stroke-miterlimit="10" d="M268.8,102.1c0,0-19.9-44.4-79.2-50.9
	C189.7,51.2,175.9,150.9,268.8,102.1z"/>
<circle fill="#666766" stroke="#27AAE1" stroke-miterlimit="10" cx="192" cy="135.8" r="22.5"/>
<path fill="#8DC63F" stroke="#8DC63F" stroke-miterlimit="10" d="M45.1,145.8c0,0,1.6-47.5,48.9-70.7C94,75,139.1,164.9,45.1,145.8z
	"/>
<ellipse fill="#8DC63F" stroke="#8DC63F" stroke-miterlimit="10" cx="123.6" cy="146.8" rx="19.8" ry="22.5"/>
<path fill="#8DC63F" stroke="#8DC63F" stroke-miterlimit="10" d="M283.5,204.6c0,0-1.5,44.4-45.7,66.1
	C237.8,270.7,195.5,186.7,283.5,204.6z"/>
<ellipse fill="#8DC63F" stroke="#8DC63F" stroke-miterlimit="10" cx="210.1" cy="203.6" rx="18.6" ry="21"/>
<path fill="#FFFFFF" stroke="#FFFFFF" stroke-miterlimit="10" d="M175,344.8L175,344.8c-8.3,0-14.9-6.7-14.9-14.9v-37.5
	c0-8.3,6.7-14.9,14.9-14.9h0c8.3,0,14.9,6.7,14.9,14.9v37.5C190,338.1,183.3,344.8,175,344.8z"/>
<path fill="#FFFFFF" stroke="#FFFFFF" stroke-miterlimit="10" d="M75.5,182.6L75.5,182.6c0,8.3-6.7,14.9-14.9,14.9H23.1
	c-8.3,0-14.9-6.7-14.9-14.9v0c0-8.3,6.7-14.9,14.9-14.9h37.5C68.8,167.7,75.5,174.4,75.5,182.6z"/>
<path fill="#FFFFFF" stroke="#FFFFFF" stroke-miterlimit="10" d="M339.3,182.6L339.3,182.6c0,8.3-6.7,14.9-14.9,14.9h-37.5
	c-8.3,0-14.9-6.7-14.9-14.9v0c0-8.3,6.7-14.9,14.9-14.9h37.5C332.6,167.7,339.3,174.4,339.3,182.6z"/>
<path fill="#FFFFFF" stroke="#FFFFFF" stroke-miterlimit="10" d="M170.7,14.4L170.7,14.4c8.3,0,14.9,6.7,14.9,14.9v37.5
	c0,8.3-6.7,14.9-14.9,14.9h0c-8.3,0-14.9-6.7-14.9-14.9V29.4C155.7,21.1,162.4,14.4,170.7,14.4z"/>
<rect x="0" y="451" fill="none" width="345.3" height="80.7"/>
<text transform="matrix(1 0 0 1 86.5565 522.8609)" fill="#FFFFFF" font-family="'Helvetica-Bold'" font-size="100">ICU</text>
</svg>
